<svg xmlns="http://www.w3.org/2000/svg" xmlns:xlink="http://www.w3.org/1999/xlink" width="500" zoomAndPan="magnify" viewBox="0 0 375 374.999991" height="500" preserveAspectRatio="xMidYMid meet" version="1.0"><defs><g/><clipPath id="d5a1611003"><path d="M 87 114.21875 L 122.851562 114.21875 L 122.851562 240 L 87 240 Z M 87 114.21875 " clip-rule="nonzero"/></clipPath><clipPath id="57fc6dd285"><path d="M 73 147 L 103 147 L 103 253.71875 L 73 253.71875 Z M 73 147 " clip-rule="nonzero"/></clipPath><clipPath id="ba76e258f1"><path d="M 64.351562 155 L 88 155 L 88 253.71875 L 64.351562 253.71875 Z M 64.351562 155 " clip-rule="nonzero"/></clipPath></defs><g clip-path="url(#d5a1611003)"><path fill="#215a6d" d="M 106.976562 235.859375 C 106.976562 237.730469 105.460938 239.230469 103.613281 239.230469 C 101.761719 239.230469 100.246094 237.714844 100.246094 235.859375 C 100.246094 234.007812 101.761719 232.492188 103.613281 232.492188 C 105.460938 232.492188 106.976562 233.992188 106.976562 235.859375 Z M 112.023438 213.808594 C 108.976562 213.808594 106.503906 216.285156 106.503906 219.332031 C 106.503906 222.382812 108.976562 224.859375 112.023438 224.859375 C 115.066406 224.859375 117.542969 222.382812 117.542969 219.332031 C 117.542969 216.285156 115.066406 213.808594 112.023438 213.808594 Z M 115.960938 194.5 C 112.175781 194.5 109.097656 197.582031 109.097656 201.375 C 109.097656 205.164062 112.175781 208.246094 115.960938 208.246094 C 119.746094 208.246094 122.824219 205.164062 122.824219 201.375 C 122.824219 197.566406 119.746094 194.5 115.960938 194.5 Z M 102.417969 184.003906 C 102.417969 188.148438 105.765625 191.5 109.902344 191.5 C 114.042969 191.5 117.390625 188.148438 117.390625 184.003906 C 117.390625 179.859375 114.042969 176.507812 109.902344 176.507812 C 105.765625 176.507812 102.417969 179.875 102.417969 184.003906 Z M 107.785156 168.167969 C 107.785156 164.023438 104.4375 160.667969 100.296875 160.667969 C 96.160156 160.667969 92.8125 164.023438 92.8125 168.167969 C 92.8125 172.3125 96.160156 175.664062 100.296875 175.664062 C 104.417969 175.664062 107.785156 172.292969 107.785156 168.167969 Z M 101.1875 150.8125 C 101.1875 147.003906 98.109375 143.921875 94.308594 143.921875 C 90.507812 143.921875 87.425781 147.003906 87.425781 150.8125 C 87.425781 154.621094 90.507812 157.703125 94.308594 157.703125 C 98.109375 157.703125 101.1875 154.621094 101.1875 150.8125 Z M 97.890625 138.34375 C 100.953125 138.34375 103.441406 135.851562 103.441406 132.785156 C 103.441406 129.71875 100.953125 127.226562 97.890625 127.226562 C 94.828125 127.226562 92.339844 129.71875 92.339844 132.785156 C 92.339844 135.851562 94.8125 138.34375 97.890625 138.34375 Z M 108.472656 121.007812 C 110.339844 121.007812 111.855469 119.492188 111.855469 117.621094 C 111.855469 115.753906 110.359375 114.21875 108.472656 114.21875 C 106.589844 114.21875 105.09375 115.734375 105.09375 117.605469 C 105.09375 119.476562 106.605469 121.007812 108.472656 121.007812 Z M 108.472656 121.007812 " fill-opacity="1" fill-rule="nonzero"/></g><g clip-path="url(#57fc6dd285)"><path fill="#3ca1a1" d="M 101.207031 217.429688 C 97.386719 231.816406 85.460938 244.90625 73.851562 253.71875 C 96.476562 228.027344 84.902344 214.226562 79.824219 202.332031 C 70.082031 179.523438 72.925781 164.359375 76.796875 155.816406 C 78.644531 152.953125 80.5625 150.140625 82.480469 147.34375 C 80.292969 154.671875 82.917969 162.605469 86.738281 169.226562 C 90.539062 175.847656 95.554688 181.796875 98.75 188.738281 C 102.835938 197.632812 103.730469 207.960938 101.207031 217.429688 Z M 101.207031 217.429688 " fill-opacity="1" fill-rule="nonzero"/></g><g clip-path="url(#ba76e258f1)"><path fill="#70d8b9" d="M 73.851562 253.71875 C 76.59375 246.59375 79.804688 235.878906 78.460938 228.210938 C 76.878906 219.28125 70.957031 212.15625 67.273438 204.085938 C 63 194.753906 63.839844 183.714844 67.324219 174.046875 C 69.375 168.316406 72.285156 162.976562 75.515625 157.820312 C 75.9375 157.148438 76.375 156.507812 76.8125 155.832031 C 72.941406 164.359375 70.097656 179.539062 79.839844 202.351562 C 84.921875 214.226562 96.476562 228.027344 73.851562 253.71875 Z M 73.851562 253.71875 " fill-opacity="1" fill-rule="nonzero"/></g><g fill="#215a6d" fill-opacity="1"><g transform="translate(132.927008, 183.136432)"><g><path d="M 11.496094 0 L 11.496094 -1.570312 L 3.527344 -1.570312 L 3.527344 -18.839844 L 1.789062 -18.839844 L 1.789062 0 Z M 11.496094 0 "/></g></g></g><g fill="#215a6d" fill-opacity="1"><g transform="translate(144.787316, 183.136432)"><g><path d="M 7.707031 0.265625 C 11.714844 0.265625 13.769531 -1.304688 13.769531 -5.84375 L 13.769531 -18.839844 L 12.03125 -18.839844 L 12.03125 -5.964844 C 12.03125 -2.390625 10.605469 -1.304688 7.707031 -1.304688 C 4.808594 -1.304688 3.40625 -2.390625 3.40625 -5.964844 L 3.40625 -18.839844 L 1.667969 -18.839844 L 1.667969 -5.84375 C 1.667969 -1.304688 3.695312 0.265625 7.707031 0.265625 Z M 7.707031 0.265625 "/></g></g></g><g fill="#215a6d" fill-opacity="1"><g transform="translate(160.222628, 183.136432)"><g><path d="M 14.058594 -8.9375 L 14.058594 -9.902344 C 14.058594 -16.425781 11.351562 -18.839844 6.761719 -18.839844 L 1.789062 -18.839844 L 1.789062 0 L 6.761719 0 C 11.351562 0 14.058594 -2.414062 14.058594 -8.9375 Z M 3.527344 -1.570312 L 3.527344 -17.269531 L 6.617188 -17.269531 C 10.242188 -17.269531 12.269531 -15.265625 12.269531 -9.902344 L 12.269531 -8.9375 C 12.269531 -3.574219 10.242188 -1.570312 6.617188 -1.570312 Z M 3.527344 -1.570312 "/></g></g></g><g fill="#215a6d" fill-opacity="1"><g transform="translate(175.657939, 183.136432)"><g><path d="M 3.648438 -18.839844 L 1.910156 -18.839844 L 1.910156 0 L 3.648438 0 Z M 3.648438 -18.839844 "/></g></g></g><g fill="#215a6d" fill-opacity="1"><g transform="translate(181.213687, 183.136432)"><g><path d="M 8.625 0.191406 L 14.058594 -18.839844 L 12.175781 -18.839844 L 7.367188 -1.714844 L 2.585938 -18.839844 L 0.699219 -18.839844 L 6.136719 0.191406 Z M 8.625 0.191406 "/></g></g></g><g fill="#215a6d" fill-opacity="1"><g transform="translate(195.97264, 183.136432)"><g><path d="M 3.648438 -18.839844 L 1.910156 -18.839844 L 1.910156 0 L 3.648438 0 Z M 3.648438 -18.839844 "/></g></g></g><g fill="#215a6d" fill-opacity="1"><g transform="translate(201.528388, 183.136432)"><g><path d="M 14.132812 -18.839844 L 12.488281 -18.839844 L 12.488281 -7.320312 L 12.5625 -2.945312 L 3.671875 -18.839844 L 1.789062 -18.839844 L 1.789062 0 L 3.429688 0 L 3.429688 -11.523438 L 3.332031 -15.894531 L 12.246094 0 L 14.132812 0 Z M 14.132812 -18.839844 "/></g></g></g><g fill="#215a6d" fill-opacity="1"><g transform="translate(217.446801, 183.136432)"><g><path d="M 1.789062 -18.839844 L 1.789062 0 L 12.296875 0 L 12.296875 -1.570312 L 3.527344 -1.570312 L 3.527344 -8.839844 L 11.085938 -8.839844 L 11.085938 -10.386719 L 3.527344 -10.386719 L 3.527344 -17.269531 L 12.296875 -17.269531 L 12.296875 -18.839844 Z M 1.789062 -18.839844 "/></g></g></g><g fill="#215a6d" fill-opacity="1"><g transform="translate(230.70812, 183.136432)"><g/></g><g transform="translate(235.539207, 183.136432)"><g><path d="M 6.957031 -8.9375 C 10.242188 -8.480469 11.617188 -7.367188 11.617188 -5.144531 L 11.617188 -4.925781 C 11.617188 -2.632812 9.902344 -1.304688 7.34375 -1.304688 L 7.175781 -1.304688 C 4.636719 -1.304688 2.851562 -2.828125 2.851562 -6.136719 L 1.109375 -6.136719 L 1.109375 -5.894531 C 1.109375 -2.003906 3.261719 0.265625 7.246094 0.265625 C 11.015625 0.265625 13.40625 -1.714844 13.40625 -5.046875 L 13.40625 -5.289062 C 13.40625 -8.1875 11.714844 -9.855469 7.609375 -10.410156 C 4.15625 -10.894531 3.117188 -12.078125 3.117188 -14.082031 L 3.117188 -14.277344 C 3.117188 -16.304688 4.855469 -17.535156 7.148438 -17.535156 L 7.320312 -17.535156 C 10.195312 -17.535156 11.449219 -16.039062 11.449219 -12.464844 L 13.1875 -12.464844 L 13.1875 -13.042969 C 13.1875 -16.933594 11.449219 -19.105469 7.246094 -19.105469 C 3.671875 -19.105469 1.328125 -17.199219 1.328125 -14.058594 L 1.328125 -13.816406 C 1.328125 -11.328125 2.851562 -9.492188 6.957031 -8.9375 Z M 6.957031 -8.9375 "/></g></g></g><g fill="#215a6d" fill-opacity="1"><g transform="translate(250.056609, 183.136432)"><g><path d="M 1.789062 -18.839844 L 1.789062 0 L 12.296875 0 L 12.296875 -1.570312 L 3.527344 -1.570312 L 3.527344 -8.839844 L 11.085938 -8.839844 L 11.085938 -10.386719 L 3.527344 -10.386719 L 3.527344 -17.269531 L 12.296875 -17.269531 L 12.296875 -18.839844 Z M 1.789062 -18.839844 "/></g></g></g><g fill="#215a6d" fill-opacity="1"><g transform="translate(263.317928, 183.136432)"><g><path d="M 3.527344 -7.65625 L 7.003906 -7.65625 C 7.296875 -7.65625 7.585938 -7.65625 7.875 -7.679688 L 10.871094 0 L 12.777344 0 L 9.515625 -8.019531 C 11.304688 -8.597656 12.777344 -10 12.777344 -12.996094 L 12.777344 -13.480469 C 12.777344 -17.828125 9.6875 -18.839844 7.003906 -18.839844 L 1.789062 -18.839844 L 1.789062 0 L 3.527344 0 Z M 3.527344 -9.226562 L 3.527344 -17.269531 L 7.054688 -17.269531 C 8.671875 -17.269531 10.992188 -16.667969 10.992188 -13.429688 L 10.992188 -13.066406 C 10.992188 -9.832031 8.671875 -9.226562 7.054688 -9.226562 Z M 3.527344 -9.226562 "/></g></g></g><g fill="#215a6d" fill-opacity="1"><g transform="translate(277.424692, 183.136432)"><g><path d="M 3.527344 -7.65625 L 7.003906 -7.65625 C 7.296875 -7.65625 7.585938 -7.65625 7.875 -7.679688 L 10.871094 0 L 12.777344 0 L 9.515625 -8.019531 C 11.304688 -8.597656 12.777344 -10 12.777344 -12.996094 L 12.777344 -13.480469 C 12.777344 -17.828125 9.6875 -18.839844 7.003906 -18.839844 L 1.789062 -18.839844 L 1.789062 0 L 3.527344 0 Z M 3.527344 -9.226562 L 3.527344 -17.269531 L 7.054688 -17.269531 C 8.671875 -17.269531 10.992188 -16.667969 10.992188 -13.429688 L 10.992188 -13.066406 C 10.992188 -9.832031 8.671875 -9.226562 7.054688 -9.226562 Z M 3.527344 -9.226562 "/></g></g></g><g fill="#215a6d" fill-opacity="1"><g transform="translate(291.531447, 183.136432)"><g><path d="M 7.707031 0.265625 C 11.714844 0.265625 13.769531 -1.304688 13.769531 -5.84375 L 13.769531 -18.839844 L 12.03125 -18.839844 L 12.03125 -5.964844 C 12.03125 -2.390625 10.605469 -1.304688 7.707031 -1.304688 C 4.808594 -1.304688 3.40625 -2.390625 3.40625 -5.964844 L 3.40625 -18.839844 L 1.667969 -18.839844 L 1.667969 -5.84375 C 1.667969 -1.304688 3.695312 0.265625 7.707031 0.265625 Z M 7.707031 0.265625 "/></g></g></g><g fill="#215a6d" fill-opacity="1"><g transform="translate(306.966768, 183.136432)"><g><path d="M 3.527344 -7.65625 L 7.003906 -7.65625 C 7.296875 -7.65625 7.585938 -7.65625 7.875 -7.679688 L 10.871094 0 L 12.777344 0 L 9.515625 -8.019531 C 11.304688 -8.597656 12.777344 -10 12.777344 -12.996094 L 12.777344 -13.480469 C 12.777344 -17.828125 9.6875 -18.839844 7.003906 -18.839844 L 1.789062 -18.839844 L 1.789062 0 L 3.527344 0 Z M 3.527344 -9.226562 L 3.527344 -17.269531 L 7.054688 -17.269531 C 8.671875 -17.269531 10.992188 -16.667969 10.992188 -13.429688 L 10.992188 -13.066406 C 10.992188 -9.832031 8.671875 -9.226562 7.054688 -9.226562 Z M 3.527344 -9.226562 "/></g></g></g><g fill="#215a6d" fill-opacity="1"><g transform="translate(321.073533, 183.136432)"><g><path d="M 3.648438 -18.839844 L 1.910156 -18.839844 L 1.910156 0 L 3.648438 0 Z M 3.648438 -18.839844 "/></g></g></g><g fill="#215a6d" fill-opacity="1"><g transform="translate(326.62929, 183.136432)"><g><path d="M 1.789062 -18.839844 L 1.789062 0 L 12.296875 0 L 12.296875 -1.570312 L 3.527344 -1.570312 L 3.527344 -8.839844 L 11.085938 -8.839844 L 11.085938 -10.386719 L 3.527344 -10.386719 L 3.527344 -17.269531 L 12.296875 -17.269531 L 12.296875 -18.839844 Z M 1.789062 -18.839844 "/></g></g></g><g fill="#215a6d" fill-opacity="1"><g transform="translate(339.8906, 183.136432)"><g><path d="M 3.527344 -7.65625 L 7.003906 -7.65625 C 7.296875 -7.65625 7.585938 -7.65625 7.875 -7.679688 L 10.871094 0 L 12.777344 0 L 9.515625 -8.019531 C 11.304688 -8.597656 12.777344 -10 12.777344 -12.996094 L 12.777344 -13.480469 C 12.777344 -17.828125 9.6875 -18.839844 7.003906 -18.839844 L 1.789062 -18.839844 L 1.789062 0 L 3.527344 0 Z M 3.527344 -9.226562 L 3.527344 -17.269531 L 7.054688 -17.269531 C 8.671875 -17.269531 10.992188 -16.667969 10.992188 -13.429688 L 10.992188 -13.066406 C 10.992188 -9.832031 8.671875 -9.226562 7.054688 -9.226562 Z M 3.527344 -9.226562 "/></g></g></g><g fill="#737373" fill-opacity="1"><g transform="translate(140.351832, 204.531302)"><g><path d="M 1.257812 -3.550781 L 1.257812 -3.933594 C 1.257812 -6.066406 1.832031 -6.96875 3.082031 -6.96875 L 3.148438 -6.96875 C 4.269531 -6.96875 4.742188 -6.304688 4.742188 -4.761719 L 5.453125 -4.761719 L 5.453125 -5.03125 C 5.453125 -6.71875 4.683594 -7.59375 3.089844 -7.59375 C 1.371094 -7.59375 0.546875 -6.527344 0.546875 -3.933594 L 0.546875 -3.550781 C 0.546875 -0.960938 1.371094 0.105469 3.089844 0.105469 C 4.683594 0.105469 5.453125 -0.769531 5.453125 -2.34375 L 5.453125 -2.4375 L 4.742188 -2.4375 C 4.742188 -1.199219 4.269531 -0.519531 3.148438 -0.519531 L 3.082031 -0.519531 C 1.824219 -0.519531 1.257812 -1.421875 1.257812 -3.550781 Z M 1.257812 -3.550781 "/></g></g></g><g fill="#737373" fill-opacity="1"><g transform="translate(150.545041, 204.531302)"><g><path d="M 2.4375 -7.5625 L 0.277344 0 L 1.027344 0 L 1.566406 -1.917969 L 4.300781 -1.917969 L 4.835938 0 L 5.585938 0 L 3.425781 -7.5625 Z M 2.925781 -6.804688 L 4.117188 -2.542969 L 1.738281 -2.542969 Z M 2.925781 -6.804688 "/></g></g></g><g fill="#737373" fill-opacity="1"><g transform="translate(160.671064, 204.531302)"><g><path d="M 0.710938 -7.488281 L 0.710938 0 L 2.765625 0 C 4.023438 0 5.078125 -0.558594 5.078125 -1.976562 L 5.078125 -2.167969 C 5.078125 -3.128906 4.53125 -3.636719 3.773438 -3.867188 C 4.425781 -4.097656 4.886719 -4.570312 4.886719 -5.414062 L 4.886719 -5.605469 C 4.886719 -6.96875 3.859375 -7.488281 2.609375 -7.488281 Z M 2.8125 -3.53125 C 3.65625 -3.53125 4.367188 -3.128906 4.367188 -2.148438 L 4.367188 -2.007812 C 4.367188 -1.027344 3.65625 -0.625 2.8125 -0.625 L 1.402344 -0.625 L 1.402344 -3.53125 Z M 2.640625 -6.863281 C 3.472656 -6.863281 4.175781 -6.515625 4.175781 -5.585938 L 4.175781 -5.433594 C 4.175781 -4.5 3.472656 -4.15625 2.640625 -4.15625 L 1.402344 -4.15625 L 1.402344 -6.863281 Z M 2.640625 -6.863281 "/></g></g></g><g fill="#737373" fill-opacity="1"><g transform="translate(170.557132, 204.531302)"><g><path d="M 1.449219 -7.488281 L 0.757812 -7.488281 L 0.757812 0 L 1.449219 0 Z M 1.449219 -7.488281 "/></g></g></g><g fill="#737373" fill-opacity="1"><g transform="translate(177.026265, 204.531302)"><g><path d="M 5.613281 -7.488281 L 4.960938 -7.488281 L 4.960938 -2.910156 L 4.992188 -1.171875 L 1.457031 -7.488281 L 0.710938 -7.488281 L 0.710938 0 L 1.363281 0 L 1.363281 -4.578125 L 1.324219 -6.316406 L 4.867188 0 L 5.613281 0 Z M 5.613281 -7.488281 "/></g></g></g><g fill="#737373" fill-opacity="1"><g transform="translate(187.612998, 204.531302)"><g><path d="M 0.710938 -7.488281 L 0.710938 0 L 4.886719 0 L 4.886719 -0.625 L 1.402344 -0.625 L 1.402344 -3.511719 L 4.40625 -3.511719 L 4.40625 -4.128906 L 1.402344 -4.128906 L 1.402344 -6.863281 L 4.886719 -6.863281 L 4.886719 -7.488281 Z M 0.710938 -7.488281 "/></g></g></g><g fill="#737373" fill-opacity="1"><g transform="translate(197.143939, 204.531302)"><g><path d="M 2.8125 -6.863281 L 4.722656 -6.863281 L 4.722656 -7.488281 L 0.222656 -7.488281 L 0.222656 -6.863281 L 2.121094 -6.863281 L 2.121094 0 L 2.8125 0 Z M 2.8125 -6.863281 "/></g></g></g><g fill="#737373" fill-opacity="1"><g transform="translate(206.348541, 204.531302)"><g/></g></g><g fill="#737373" fill-opacity="1"><g transform="translate(212.529733, 204.531302)"><g><path d="M 1.257812 -3.550781 L 1.257812 -3.933594 C 1.257812 -6.066406 1.832031 -6.96875 3.082031 -6.96875 L 3.148438 -6.96875 C 4.269531 -6.96875 4.742188 -6.304688 4.742188 -4.761719 L 5.453125 -4.761719 L 5.453125 -5.03125 C 5.453125 -6.71875 4.683594 -7.59375 3.089844 -7.59375 C 1.371094 -7.59375 0.546875 -6.527344 0.546875 -3.933594 L 0.546875 -3.550781 C 0.546875 -0.960938 1.371094 0.105469 3.089844 0.105469 C 4.683594 0.105469 5.453125 -0.769531 5.453125 -2.34375 L 5.453125 -2.4375 L 4.742188 -2.4375 C 4.742188 -1.199219 4.269531 -0.519531 3.148438 -0.519531 L 3.082031 -0.519531 C 1.824219 -0.519531 1.257812 -1.421875 1.257812 -3.550781 Z M 1.257812 -3.550781 "/></g></g></g><g fill="#737373" fill-opacity="1"><g transform="translate(222.722944, 204.531302)"><g><path d="M 4.730469 -7.488281 L 4.730469 -4.128906 L 1.402344 -4.128906 L 1.402344 -7.488281 L 0.710938 -7.488281 L 0.710938 0 L 1.402344 0 L 1.402344 -3.511719 L 4.730469 -3.511719 L 4.730469 0 L 5.421875 0 L 5.421875 -7.488281 Z M 4.730469 -7.488281 "/></g></g></g><g fill="#737373" fill-opacity="1"><g transform="translate(233.117726, 204.531302)"><g><path d="M 1.449219 -7.488281 L 0.757812 -7.488281 L 0.757812 0 L 1.449219 0 Z M 1.449219 -7.488281 "/></g></g></g><g fill="#737373" fill-opacity="1"><g transform="translate(239.586862, 204.531302)"><g><path d="M 1.402344 -3.042969 L 2.785156 -3.042969 C 2.898438 -3.042969 3.015625 -3.042969 3.128906 -3.050781 L 4.320312 0 L 5.078125 0 L 3.78125 -3.1875 C 4.492188 -3.417969 5.078125 -3.972656 5.078125 -5.164062 L 5.078125 -5.355469 C 5.078125 -7.082031 3.847656 -7.488281 2.785156 -7.488281 L 0.710938 -7.488281 L 0.710938 0 L 1.402344 0 Z M 1.402344 -3.667969 L 1.402344 -6.863281 L 2.800781 -6.863281 C 3.445312 -6.863281 4.367188 -6.621094 4.367188 -5.335938 L 4.367188 -5.191406 C 4.367188 -3.90625 3.445312 -3.667969 2.800781 -3.667969 Z M 1.402344 -3.667969 "/></g></g></g><g fill="#737373" fill-opacity="1"><g transform="translate(249.453746, 204.531302)"><g><path d="M 3.109375 0.105469 C 4.828125 0.105469 5.683594 -0.960938 5.683594 -3.550781 L 5.683594 -3.933594 C 5.683594 -6.527344 4.828125 -7.59375 3.109375 -7.59375 C 1.402344 -7.59375 0.546875 -6.527344 0.546875 -3.933594 L 0.546875 -3.550781 C 0.546875 -0.960938 1.402344 0.105469 3.109375 0.105469 Z M 3.082031 -0.519531 C 1.824219 -0.519531 1.257812 -1.421875 1.257812 -3.550781 L 1.257812 -3.933594 C 1.257812 -6.066406 1.824219 -6.96875 3.082031 -6.96875 L 3.148438 -6.96875 C 4.40625 -6.96875 4.972656 -6.066406 4.972656 -3.933594 L 4.972656 -3.550781 C 4.972656 -1.421875 4.40625 -0.519531 3.148438 -0.519531 Z M 3.082031 -0.519531 "/></g></g></g><g fill="#737373" fill-opacity="1"><g transform="translate(259.944506, 204.531302)"><g><path d="M 1.402344 -3.042969 L 2.785156 -3.042969 C 3.847656 -3.042969 5.078125 -3.445312 5.078125 -5.164062 L 5.078125 -5.355469 C 5.078125 -7.082031 3.847656 -7.488281 2.785156 -7.488281 L 0.710938 -7.488281 L 0.710938 0 L 1.402344 0 Z M 1.402344 -3.667969 L 1.402344 -6.863281 L 2.800781 -6.863281 C 3.445312 -6.863281 4.367188 -6.621094 4.367188 -5.335938 L 4.367188 -5.191406 C 4.367188 -3.90625 3.445312 -3.667969 2.800781 -3.667969 Z M 1.402344 -3.667969 "/></g></g></g><g fill="#737373" fill-opacity="1"><g transform="translate(269.705808, 204.531302)"><g><path d="M 1.402344 -3.042969 L 2.785156 -3.042969 C 2.898438 -3.042969 3.015625 -3.042969 3.128906 -3.050781 L 4.320312 0 L 5.078125 0 L 3.78125 -3.1875 C 4.492188 -3.417969 5.078125 -3.972656 5.078125 -5.164062 L 5.078125 -5.355469 C 5.078125 -7.082031 3.847656 -7.488281 2.785156 -7.488281 L 0.710938 -7.488281 L 0.710938 0 L 1.402344 0 Z M 1.402344 -3.667969 L 1.402344 -6.863281 L 2.800781 -6.863281 C 3.445312 -6.863281 4.367188 -6.621094 4.367188 -5.335938 L 4.367188 -5.191406 C 4.367188 -3.90625 3.445312 -3.667969 2.800781 -3.667969 Z M 1.402344 -3.667969 "/></g></g></g><g fill="#737373" fill-opacity="1"><g transform="translate(279.572693, 204.531302)"><g><path d="M 2.4375 -7.5625 L 0.277344 0 L 1.027344 0 L 1.566406 -1.917969 L 4.300781 -1.917969 L 4.835938 0 L 5.585938 0 L 3.425781 -7.5625 Z M 2.925781 -6.804688 L 4.117188 -2.542969 L 1.738281 -2.542969 Z M 2.925781 -6.804688 "/></g></g></g><g fill="#737373" fill-opacity="1"><g transform="translate(289.698718, 204.531302)"><g><path d="M 1.257812 -3.550781 L 1.257812 -3.933594 C 1.257812 -6.066406 1.832031 -6.96875 3.082031 -6.96875 L 3.148438 -6.96875 C 4.269531 -6.96875 4.742188 -6.304688 4.742188 -4.761719 L 5.453125 -4.761719 L 5.453125 -5.03125 C 5.453125 -6.71875 4.683594 -7.59375 3.089844 -7.59375 C 1.371094 -7.59375 0.546875 -6.527344 0.546875 -3.933594 L 0.546875 -3.550781 C 0.546875 -0.960938 1.371094 0.105469 3.089844 0.105469 C 4.683594 0.105469 5.453125 -0.769531 5.453125 -2.34375 L 5.453125 -2.4375 L 4.742188 -2.4375 C 4.742188 -1.199219 4.269531 -0.519531 3.148438 -0.519531 L 3.082031 -0.519531 C 1.824219 -0.519531 1.257812 -1.421875 1.257812 -3.550781 Z M 1.257812 -3.550781 "/></g></g></g><g fill="#737373" fill-opacity="1"><g transform="translate(299.891929, 204.531302)"><g><path d="M 2.8125 -6.863281 L 4.722656 -6.863281 L 4.722656 -7.488281 L 0.222656 -7.488281 L 0.222656 -6.863281 L 2.121094 -6.863281 L 2.121094 0 L 2.8125 0 Z M 2.8125 -6.863281 "/></g></g></g><g fill="#737373" fill-opacity="1"><g transform="translate(309.096531, 204.531302)"><g><path d="M 1.449219 -7.488281 L 0.757812 -7.488281 L 0.757812 0 L 1.449219 0 Z M 1.449219 -7.488281 "/></g></g></g><g fill="#737373" fill-opacity="1"><g transform="translate(315.565666, 204.531302)"><g><path d="M 3.109375 0.105469 C 3.292969 0.105469 3.464844 0.0859375 3.628906 0.0664062 L 3.964844 0.960938 L 4.597656 0.960938 L 4.195312 -0.0859375 C 5.183594 -0.488281 5.683594 -1.574219 5.683594 -3.550781 L 5.683594 -3.933594 C 5.683594 -6.527344 4.828125 -7.59375 3.109375 -7.59375 C 1.402344 -7.59375 0.546875 -6.527344 0.546875 -3.933594 L 0.546875 -3.550781 C 0.546875 -0.960938 1.402344 0.105469 3.109375 0.105469 Z M 3.386719 -2.167969 L 2.792969 -2.167969 L 3.40625 -0.527344 C 3.320312 -0.519531 3.234375 -0.519531 3.148438 -0.519531 L 3.082031 -0.519531 C 1.824219 -0.519531 1.257812 -1.421875 1.257812 -3.550781 L 1.257812 -3.933594 C 1.257812 -6.066406 1.824219 -6.96875 3.082031 -6.96875 L 3.148438 -6.96875 C 4.40625 -6.96875 4.972656 -6.066406 4.972656 -3.933594 L 4.972656 -3.550781 C 4.972656 -1.949219 4.644531 -1.035156 3.953125 -0.691406 Z M 3.386719 -2.167969 "/></g></g></g><g fill="#737373" fill-opacity="1"><g transform="translate(326.056426, 204.531302)"><g><path d="M 3.0625 0.105469 C 4.65625 0.105469 5.472656 -0.519531 5.472656 -2.324219 L 5.472656 -7.488281 L 4.78125 -7.488281 L 4.78125 -2.371094 C 4.78125 -0.949219 4.214844 -0.519531 3.0625 -0.519531 C 1.910156 -0.519531 1.351562 -0.949219 1.351562 -2.371094 L 1.351562 -7.488281 L 0.664062 -7.488281 L 0.664062 -2.324219 C 0.664062 -0.519531 1.46875 0.105469 3.0625 0.105469 Z M 3.0625 0.105469 "/></g></g></g><g fill="#737373" fill-opacity="1"><g transform="translate(336.451208, 204.531302)"><g><path d="M 0.710938 -7.488281 L 0.710938 0 L 4.886719 0 L 4.886719 -0.625 L 1.402344 -0.625 L 1.402344 -3.511719 L 4.40625 -3.511719 L 4.40625 -4.128906 L 1.402344 -4.128906 L 1.402344 -6.863281 L 4.886719 -6.863281 L 4.886719 -7.488281 Z M 0.710938 -7.488281 "/></g></g></g></svg>